<svg width="19" height="19" viewBox="0 0 19 19" fill="none" xmlns="http://www.w3.org/2000/svg">
<path fill-rule="evenodd" clip-rule="evenodd" d="M15.0418 4.68208C13.7071 3.28886 11.8303 2.42285 9.75002 2.42285C5.70347 2.42285 2.4231 5.70323 2.4231 9.74977C2.4231 13.7963 5.70347 17.0767 9.75002 17.0767C13.7966 17.0767 17.0769 13.7963 17.0769 9.74977H18.5769C18.5769 14.6248 14.625 18.5767 9.75002 18.5767C4.87504 18.5767 0.923096 14.6248 0.923096 9.74977C0.923096 4.8748 4.87504 0.922852 9.75002 0.922852C12.256 0.922852 14.5191 1.96813 16.1249 3.64444C16.4747 4.00955 16.7935 4.40474 17.0769 4.82581V1.67285C17.0769 1.25864 17.4127 0.922852 17.8269 0.922852C18.2412 0.922852 18.5769 1.25864 18.5769 1.67285V7.05747V7.80747H17.8269H11.5449C11.1307 7.80747 10.7949 7.47168 10.7949 7.05747C10.7949 6.64325 11.1307 6.30747 11.5449 6.30747H16.2198C15.9023 5.71221 15.5049 5.16559 15.0418 4.68208Z" fill="#205EFF"/>
</svg>
